<?xml version="1.0" encoding="UTF-8"?>
<svg width="16px" height="17px" viewBox="0 0 16 17" version="1.1" xmlns="http://www.w3.org/2000/svg" xmlns:xlink="http://www.w3.org/1999/xlink">
    <!-- Generator: Sketch 61 (89581) - https://sketch.com -->
    <title>litmus-logo</title>
    <desc>Created with Sketch.</desc>
    <g id="Preview" stroke="none" stroke-width="1" fill="none" fill-rule="evenodd">
        <g transform="translate(-950.000000, -260.000000)" id="Composer">
            <g transform="translate(0.000000, 184.000000)">
                <g id="Content-switcher" transform="translate(536.000000, 64.000000)">
                    <g id="content-switcher-/-item-/-03-right-with-icon-/-01-enabled" transform="translate(384.000000, 0.000000)">
                        <g id="Group-3" transform="translate(30.000000, 11.000000)">
                            <g id="Litmus-logo" transform="translate(0.000000, 1.000000)">
                                <g id="litmus-logo" transform="translate(0.000000, 0.062494)">
                                    <path d="M2.35367281e-14,7.99625 C2.35367281e-14,8.7766875 0.1124375,9.53075 0.3208125,10.2438125 L4.7345625,8.798125 C4.6788125,8.557375 4.649125,8.306625 4.649125,8.048875 C4.649125,7.7505625 4.6896875,7.4619375 4.763625,7.187 L0.3184375,5.7568125 C0.1115,6.4674375 2.35367281e-14,7.21875 2.35367281e-14,7.99625" id="Fill-1" fill="#6A7A55"></path>
                                    <path d="M5.849825,5.49676875 L3.0591375,1.70483125 C1.8870125,2.62651875 0.9790125,3.86864375 0.4666375,5.29908125 L4.9222,6.73264375 C5.131325,6.25064375 5.4507625,5.82770625 5.849825,5.49676875" id="Fill-3" fill="#A09440"></path>
                                    <path d="M7.76318125,4.73975 L7.76318125,1.99840144e-14 C6.16143125,0.0465625 4.67799375,0.5641875 3.44599375,1.41875 L6.24130625,5.217 C6.68974375,4.9435625 7.20786875,4.773125 7.76318125,4.73975" id="Fill-5" fill="#AFA148"></path>
                                    <path d="M4.87774375,9.2575125 L0.46949375,10.7013875 C0.98924375,12.14795 1.91349375,13.401575 3.10643125,14.3252 L5.82711875,10.5818875 C5.40936875,10.2292625 5.08080625,9.7748875 4.87774375,9.2575125" id="Fill-8" fill="#4C5C59"></path>
                                    <path d="M3.49588125,14.6077938 C4.71800625,15.4419813 6.18294375,15.9464813 7.76319375,15.9924813 L7.76319375,11.3579813 C7.19744375,11.3239813 6.67038125,11.1475438 6.21619375,10.8649813 L3.49588125,14.6077938" id="Fill-10" fill="#48555D"></path>
                                    <path d="M12.509275,1.38825 C11.2880875,0.553375 9.8238375,0.0476875 8.2443375,0.0003125 L8.2443375,4.7456875 C8.781025,4.7905 9.2812125,4.9633125 9.7147125,5.2330625 L12.509275,1.38825" id="Fill-12" fill="#E3B23B"></path>
                                    <path d="M8.244325,11.3520563 L8.244325,15.9921813 C9.8362625,15.9444938 11.3110125,15.4312438 12.5380125,14.5845563 L9.7727,10.8271813 C9.32595,11.1181813 8.8052,11.3052438 8.244325,11.3520563" id="Fill-14" fill="#903024"></path>
                                    <path d="M10.1559438,10.536075 L12.9256938,14.2996375 C14.1153188,13.3688875 15.0341313,12.1085125 15.5462563,10.6562625 L11.0681938,9.2155125 C10.8750688,9.7280125 10.5595688,10.1805125 10.1559438,10.536075" id="Fill-16" fill="#D65841"></path>
                                    <path d="M16,7.99625 C16,7.206125 15.885,6.443 15.671625,5.722125 L11.168875,7.1969375 C11.241125,7.468875 11.2806875,7.754125 11.2806875,8.048875 C11.2806875,8.2909375 11.2543125,8.5268125 11.2050625,8.7540625 L15.6923125,10.1978125 C15.8921875,9.4983125 16,8.7599375 16,7.99625" id="Fill-18" fill="#E6703E"></path>
                                    <path d="M11.0117813,6.74213125 L15.5213438,5.26500625 C15.0005938,3.83144375 14.0818438,2.58888125 12.8984688,1.67119375 L10.1035938,5.51656875 C10.4943438,5.84663125 10.8068438,6.26575625 11.0117813,6.74213125" id="Fill-20" fill="#F4A83A"></path>
                                </g>
                            </g>
                        </g>
                    </g>
                </g>
            </g>
        </g>
    </g>
</svg>