<?xml version="1.0" encoding="utf-8"?>
<!-- Generator: Adobe Illustrator 24.0.0, SVG Export Plug-In . SVG Version: 6.00 Build 0)  -->
<svg version="1.1" id="Layer_1" xmlns="http://www.w3.org/2000/svg" xmlns:xlink="http://www.w3.org/1999/xlink" x="0px" y="0px"
	 viewBox="0 0 28 33" style="enable-background:new 0 0 28 33;" xml:space="preserve">
<style type="text/css">
	.st0{fill:none;}
	.st1{fill:#5A5D77;}
	.st2{fill-rule:evenodd;clip-rule:evenodd;fill:#5A5D77;}
	.st3{fill:#29AB87;}
	.st4{fill-rule:evenodd;clip-rule:evenodd;fill:#FFFFFF;}
</style>
<title>Group 2</title>
<desc>Created with Sketch.</desc>
<g>
	<polygon class="st0" points="12.5,2.4 12.5,8 18.1,8 	"/>
	<path class="st1" d="M2.5,26V2h8v6c0,1.1,0.9,2,2,2h6v9.5c0.6-0.2,1.3-0.4,2-0.4V8c0-0.3-0.1-0.5-0.3-0.7l-7-7
		C13,0.1,12.8,0,12.5,0h-10c-1.1,0-2,0.9-2,2v24c0,1.1,0.9,2,2,2h11.8c-0.2-0.6-0.3-1.3-0.3-2H2.5z M12.5,2.4L18.1,8h-5.6V2.4z"/>
</g>
<rect x="5.5" y="20" class="st2" width="10" height="2"/>
<rect x="5.5" y="14" class="st2" width="10" height="2"/>
<path class="st3" d="M21,21c-0.2,0-0.3,0-0.5,0.1l0,0c-0.7,0.1-1.4,0.3-2,0.6l0,0c0,0,0,0,0,0c-0.5,0.3-1,0.7-1.3,1.1
	c-0.1,0.1-0.1,0.1-0.2,0.2c-0.1,0.1-0.2,0.2-0.3,0.4c-0.1,0.2-0.2,0.3-0.3,0.5c-0.1,0.1-0.1,0.2-0.1,0.3c-0.1,0.2-0.2,0.4-0.2,0.7
	c0,0.1,0,0.2-0.1,0.2C16,25.4,16,25.7,16,26c0,0.7,0.2,1.4,0.4,2l0,0c0.1,0.2,0.2,0.5,0.4,0.7c0.1,0.1,0.1,0.2,0.2,0.3
	c0.1,0.1,0.2,0.3,0.3,0.4c0.1,0.1,0.2,0.2,0.2,0.3c0.2,0.1,0.3,0.3,0.5,0.4c0.1,0,0.1,0.1,0.2,0.1c0.2,0.2,0.5,0.3,0.7,0.4
	c0.1,0,0.2,0.1,0.3,0.1c0.2,0.1,0.4,0.1,0.6,0.2c0.1,0,0.2,0,0.3,0.1C20.4,31,20.7,31,21,31c2.8,0,5-2.2,5-5S23.8,21,21,21z"/>
<polygon id="Path" class="st4" points="20,28.8 17.5,26.3 18.3,25.5 20,27.2 23.7,23.5 24.5,24.3 "/>
</svg>
