<?xml version="1.0" encoding="UTF-8"?>
<svg width="14px" height="14px" viewBox="0 0 14 14" version="1.1" xmlns="http://www.w3.org/2000/svg" xmlns:xlink="http://www.w3.org/1999/xlink">
    <title>icon/status/checkmark/16</title>
    <defs>
        <path d="M11.5,6.2 L10.8,5.5 L7,9.3 L5.2,7.5 L4.5,8.2 L7,10.7 L11.5,6.2 Z M8,1 C4.15,1 1,4.15 1,8 C1,11.85 4.15,15 8,15 C11.85,15 15,11.85 15,8 C15,4.15 11.85,1 8,1 Z M8,14 C4.7,14 2,11.3 2,8 C2,4.7 4.7,2 8,2 C11.3,2 14,4.7 14,8 C14,11.3 11.3,14 8,14 Z" id="path-1"></path>
    </defs>
    <g id="checkmark-circle" stroke="none" stroke-width="1" fill="none" fill-rule="evenodd">
        <g id="t" transform="translate(-653.000000, -675.000000)">
            <g id="icon/status/checkmark/16" transform="translate(652.000000, 674.000000)">
                <mask id="mask-2" fill="white">
                    <use xlink:href="#path-1"></use>
                </mask>
                <use id="icon-color" fill="#29AB87" xlink:href="#path-1"></use>
            </g>
        </g>
    </g>
</svg>
